                                                                        S      1
,,14Hseal holder v1,14Hseal holder v1,7Hunknown,7Hunknown,32,38,7,99,15,G      1
,1.,2,2HMM,1,0.08,15H20190923.170842,0.01,10000.,7Hunknown,7Hunknown,11,G      2
0,15H20190923.113225;                                                   G      3
     186       1                                                00000000D      1
     186             -51       1       0                               0D      2
     514       2                                                00010000D      3
     514                       1       1                               0D      4
     510       3                                                00010000D      5
     510             -51       1       1                               0D      6
     510       4                                                00010000D      7
     510             -51       1       1                               0D      8
     510       5                                                00010000D      9
     510             -51       1       1                               0D     10
     510       6                                                00010000D     11
     510             -51       1       1                               0D     12
     508       7                                                00010000D     13
     508                       1       1                               0D     14
     508       8                                                00010000D     15
     508                       1       1                               0D     16
     508       9                                                00010000D     17
     508                       1       1                               0D     18
     508      10                                                00010000D     19
     508                       1       1                               0D     20
     508      11                                                00010000D     21
     508                       1       1                               0D     22
     508      12                                                00010000D     23
     508                       1       1                               0D     24
     126      13                                                00010000D     25
     126       0               9       0                               0D     26
     126      22                                                00010000D     27
     126       0               9       0                               0D     28
     126      31                                                00010000D     29
     126       0               9       0                               0D     30
     126      40                                                00010000D     31
     126       0               9       0                               0D     32
     126      49                                                00010000D     33
     126       0               2       0                               0D     34
     126      51                                                00010000D     35
     126       0               2       0                               0D     36
     128      53                                                00010000D     37
     128       0     -51       3       0                               0D     38
     128      56                                                00010000D     39
     128       0     -51       3       0                               0D     40
     128      59                                                00010000D     41
     128       0     -51      12       0                               0D     42
     128      71                                                00010000D     43
     128       0     -51      12       0                               0D     44
     502      83                                                00010000D     45
     502                       1       1                               0D     46
     504      84                                                00010001D     47
     504                       2       1                               0D     48
     406      86                                                00000000D     49
     406                       1      15                               0D     50
     314      87                                                00000200D     51
     314                       2       0                               0D     52
186,3,1,0,0,1,49;                                                      1P      1
514,4,5,1,7,1,9,1,11,1;                                                3P      2
510,37,2,1,13,15;                                                      5P      3
510,39,2,1,17,19;                                                      7P      4
510,41,1,1,21;                                                         9P      5
510,43,1,1,23;                                                        11P      6
508,1,0,47,1,1,0;                                                     13P      7
508,1,0,47,2,0,0;                                                     15P      8
508,1,0,47,3,0,0;                                                     17P      9
508,1,0,47,4,1,0;                                                     19P     10
508,4,0,47,3,1,0,0,47,5,1,0,0,47,1,0,0,0,47,5,0,0;                    21P     11
508,4,0,47,2,1,0,0,47,6,1,0,0,47,4,0,0,0,47,6,0,0;                    23P     12
126,8,2,0,1,0,0,0.,0.,0.,1.5707963267949,1.5707963267949,             25P     13
3.14159265358979,3.14159265358979,4.71238898038469,                   25P     14
4.71238898038469,6.28318530717959,6.28318530717959,                   25P     15
6.28318530717959,1.,0.707106781186547,1.,0.707106781186547,1.,        25P     16
0.707106781186548,1.,0.707106781186547,1.,14.3,0.,3.2,14.3,14.3,      25P     17
3.2,8.75622461390357D-16,14.3,3.2,-14.3,14.3,3.2,-14.3,               25P     18
1.75124492278071D-15,3.2,-14.3,-14.3,3.2,-2.62686738417107D-15,       25P     19
-14.3,3.2,14.3,-14.3,3.2,14.3,-3.50248984556143D-15,3.2,0.,           25P     20
6.28318530717959,0.,0.,0.;                                            25P     21
126,8,2,0,1,0,0,0.,0.,0.,1.5707963267949,1.5707963267949,             27P     22
3.14159265358979,3.14159265358979,4.71238898038469,                   27P     23
4.71238898038469,6.28318530717959,6.28318530717959,                   27P     24
6.28318530717959,1.,0.707106781186548,1.,0.707106781186548,1.,        27P     25
0.707106781186548,1.,0.707106781186547,1.,13.1,0.,3.2,13.1,13.1,      27P     26
3.2,8.02143653441516D-16,13.1,3.2,-13.1,13.1,3.2,-13.1,               27P     27
1.60428730688303D-15,3.2,-13.1,-13.1,3.2,-2.40643096032455D-15,       27P     28
-13.1,3.2,13.1,-13.1,3.2,13.1,-3.20857461376607D-15,3.2,0.,           27P     29
6.28318530717959,0.,0.,0.;                                            27P     30
126,8,2,0,1,0,0,0.,0.,0.,1.5707963267949,1.5707963267949,             29P     31
3.14159265358979,3.14159265358979,4.71238898038469,                   29P     32
4.71238898038469,6.28318530717959,6.28318530717959,                   29P     33
6.28318530717959,1.,0.707106781186547,1.,0.707106781186547,1.,        29P     34
0.707106781186548,1.,0.707106781186547,1.,14.3,0.,0.,14.3,14.3,       29P     35
0.,8.75622461390357D-16,14.3,0.,-14.3,14.3,0.,-14.3,                  29P     36
1.75124492278071D-15,0.,-14.3,-14.3,0.,-2.62686738417107D-15,         29P     37
-14.3,0.,14.3,-14.3,0.,14.3,-3.50248984556143D-15,0.,0.,              29P     38
6.28318530717959,0.,0.,0.;                                            29P     39
126,8,2,0,1,0,0,0.,0.,0.,1.5707963267949,1.5707963267949,             31P     40
3.14159265358979,3.14159265358979,4.71238898038469,                   31P     41
4.71238898038469,6.28318530717959,6.28318530717959,                   31P     42
6.28318530717959,1.,0.707106781186548,1.,0.707106781186548,1.,        31P     43
0.707106781186548,1.,0.707106781186547,1.,13.1,0.,0.,13.1,13.1,       31P     44
0.,8.02143653441516D-16,13.1,0.,-13.1,13.1,0.,-13.1,                  31P     45
1.60428730688303D-15,0.,-13.1,-13.1,0.,-2.40643096032455D-15,         31P     46
-13.1,0.,13.1,-13.1,0.,13.1,-3.20857461376607D-15,0.,0.,              31P     47
6.28318530717959,0.,0.,0.;                                            31P     48
126,1,1,0,0,1,0,-0.223776223776224,-0.223776223776224,0.,0.,1.,       33P     49
1.,14.3,0.,0.,14.3,0.,3.2,-0.223776223776224,0.,0.,0.,0.;             33P     50
126,1,1,0,0,1,0,0.,0.,0.244274809160305,0.244274809160305,1.,1.,      35P     51
13.1,0.,3.2,13.1,0.,0.,0.,0.244274809160305,0.,0.,0.;                 35P     52
128,1,1,1,1,0,0,1,0,0,-1.431,-1.431,1.431,1.431,-1.431,-1.431,        37P     53
1.431,1.431,1.,1.,1.,1.,-14.31,-14.31,3.2,14.31,-14.31,3.2,           37P     54
-14.31,14.31,3.2,14.31,14.31,3.2,-1.431,1.431,-1.431,1.431;           37P     55
128,1,1,1,1,0,0,1,0,0,-1.431,-1.431,1.431,1.431,-1.431,-1.431,        39P     56
1.431,1.431,1.,1.,1.,1.,14.31,-14.31,0.,-14.31,-14.31,0.,14.31,       39P     57
14.31,0.,-14.31,14.31,0.,-1.431,1.431,-1.431,1.431;                   39P     58
128,1,8,1,2,0,1,0,0,1,0.,0.,0.223776223776224,0.223776223776224,      41P     59
-3.14159265358979,-3.14159265358979,-3.14159265358979,                41P     60
-1.5707963267949,-1.5707963267949,0.,0.,1.5707963267949,              41P     61
1.5707963267949,3.14159265358979,3.14159265358979,                    41P     62
3.14159265358979,1.,1.,0.707106781186548,0.707106781186548,1.,        41P     63
1.,0.707106781186548,0.707106781186548,1.,1.,0.707106781186548,       41P     64
0.707106781186548,1.,1.,0.707106781186548,0.707106781186548,1.,       41P     65
1.,14.3,0.,0.,14.3,0.,3.2,14.3,-14.3,0.,14.3,-14.3,3.2,0.,-14.3,      41P     66
0.,0.,-14.3,3.2,-14.3,-14.3,0.,-14.3,-14.3,3.2,-14.3,0.,0.,           41P     67
-14.3,0.,3.2,-14.3,14.3,0.,-14.3,14.3,3.2,0.,14.3,0.,0.,14.3,         41P     68
3.2,14.3,14.3,0.,14.3,14.3,3.2,14.3,0.,0.,14.3,0.,3.2,0.,             41P     69
0.223776223776224,-3.14159265358979,3.14159265358979;                 41P     70
128,1,8,1,2,0,1,0,0,1,0.,0.,0.244274809160305,0.244274809160305,      43P     71
-3.14159265358979,-3.14159265358979,-3.14159265358979,                43P     72
-1.5707963267949,-1.5707963267949,0.,0.,1.5707963267949,              43P     73
1.5707963267949,3.14159265358979,3.14159265358979,                    43P     74
3.14159265358979,1.,1.,0.707106781186548,0.707106781186548,1.,        43P     75
1.,0.707106781186548,0.707106781186548,1.,1.,0.707106781186548,       43P     76
0.707106781186548,1.,1.,0.707106781186548,0.707106781186548,1.,       43P     77
1.,13.1,0.,3.2,13.1,0.,0.,13.1,-13.1,3.2,13.1,-13.1,0.,0.,-13.1,      43P     78
3.2,0.,-13.1,0.,-13.1,-13.1,3.2,-13.1,-13.1,0.,-13.1,0.,3.2,          43P     79
-13.1,0.,0.,-13.1,13.1,3.2,-13.1,13.1,0.,0.,13.1,3.2,0.,13.1,0.,      43P     80
13.1,13.1,3.2,13.1,13.1,0.,13.1,0.,3.2,13.1,0.,0.,0.,                 43P     81
0.244274809160305,-3.14159265358979,3.14159265358979;                 43P     82
502,4,14.3,0.,3.2,13.1,0.,3.2,14.3,0.,0.,13.1,0.,0.;                  45P     83
504,6,25,45,1,45,1,27,45,2,45,2,29,45,3,45,3,31,45,4,45,4,33,45,      47P     84
3,45,1,35,45,2,45,4;                                                  47P     85
406,1,5HBody1;                                                        49P     86
314,62.7450980392157,62.7450980392157,62.7450980392157,13HSteel       51P     87
- Satin;                                                              51P     88
S      1G      3D     52P     88                                        T      1
