                                                                        S      1
,,6HLid v9,6HLid v9,7Hunknown,7Hunknown,32,38,7,99,15,,1.,2,2HMM,1,0.08,G      1
15H20190923.175832,0.01,10000.,7Hunknown,7Hunknown,11,0,15H20190923.1225G      2
00;                                                                     G      3
     186       1                                                00000000D      1
     186            -199       1       0                               0D      2
     514       2                                                00010000D      3
     514                       2       1                               0D      4
     510       4                                                00010000D      5
     510            -199       1       1                               0D      6
     510       5                                                00010000D      7
     510            -199       1       1                               0D      8
     510       6                                                00010000D      9
     510            -199       1       1                               0D     10
     510       7                                                00010000D     11
     510            -199       1       1                               0D     12
     510       8                                                00010000D     13
     510            -199       1       1                               0D     14
     510       9                                                00010000D     15
     510            -199       1       1                               0D     16
     510      10                                                00010000D     17
     510            -199       1       1                               0D     18
     510      11                                                00010000D     19
     510            -199       1       1                               0D     20
     510      12                                                00010000D     21
     510            -199       1       1                               0D     22
     510      13                                                00010000D     23
     510            -199       1       1                               0D     24
     510      14                                                00010000D     25
     510            -199       1       1                               0D     26
     510      15                                                00010000D     27
     510            -199       1       1                               0D     28
     510      16                                                00010000D     29
     510            -199       1       1                               0D     30
     510      17                                                00010000D     31
     510            -199       1       1                               0D     32
     510      18                                                00010000D     33
     510            -199       1       1                               0D     34
     510      19                                                00010000D     35
     510            -199       1       1                               0D     36
     508      20                                                00010000D     37
     508                       1       1                               0D     38
     508      21                                                00010000D     39
     508                       1       1                               0D     40
     508      22                                                00010000D     41
     508                       1       1                               0D     42
     508      23                                                00010000D     43
     508                       1       1                               0D     44
     508      24                                                00010000D     45
     508                       1       1                               0D     46
     508      25                                                00010000D     47
     508                       1       1                               0D     48
     508      26                                                00010000D     49
     508                       1       1                               0D     50
     508      27                                                00010000D     51
     508                       1       1                               0D     52
     508      28                                                00010000D     53
     508                       1       1                               0D     54
     508      29                                                00010000D     55
     508                       1       1                               0D     56
     508      30                                                00010000D     57
     508                       1       1                               0D     58
     508      31                                                00010000D     59
     508                       1       1                               0D     60
     508      32                                                00010000D     61
     508                       1       1                               0D     62
     508      33                                                00010000D     63
     508                       2       1                               0D     64
     508      35                                                00010000D     65
     508                       1       1                               0D     66
     508      36                                                00010000D     67
     508                       1       1                               0D     68
     508      37                                                00010000D     69
     508                       2       1                               0D     70
     508      39                                                00010000D     71
     508                       1       1                               0D     72
     508      40                                                00010000D     73
     508                       2       1                               0D     74
     508      42                                                00010000D     75
     508                       2       1                               0D     76
     126      44                                                00010000D     77
     126       0               4       0                               0D     78
     126      48                                                00010000D     79
     126       0               2       0                               0D     80
     126      50                                                00010000D     81
     126       0               3       0                               0D     82
     126      53                                                00010000D     83
     126       0               2       0                               0D     84
     126      55                                                00010000D     85
     126       0               2       0                               0D     86
     126      57                                                00010000D     87
     126       0               3       0                               0D     88
     126      60                                                00010000D     89
     126       0               2       0                               0D     90
     126      62                                                00010000D     91
     126       0               2       0                               0D     92
     126      64                                                00010000D     93
     126       0               2       0                               0D     94
     126      66                                                00010000D     95
     126       0               2       0                               0D     96
     126      68                                                00010000D     97
     126       0               2       0                               0D     98
     126      70                                                00010000D     99
     126       0               2       0                               0D    100
     126      72                                                00010000D    101
     126       0               2       0                               0D    102
     126      74                                                00010000D    103
     126       0               2       0                               0D    104
     126      76                                                00010000D    105
     126       0               2       0                               0D    106
     126      78                                                00010000D    107
     126       0               2       0                               0D    108
     126      80                                                00010000D    109
     126       0               2       0                               0D    110
     126      82                                                00010000D    111
     126       0               2       0                               0D    112
     126      84                                                00010000D    113
     126       0               2       0                               0D    114
     126      86                                                00010000D    115
     126       0               2       0                               0D    116
     126      88                                                00010000D    117
     126       0               2       0                               0D    118
     126      90                                                00010000D    119
     126       0               8       0                               0D    120
     126      98                                                00010000D    121
     126       0               8       0                               0D    122
     126     106                                                00010000D    123
     126       0               2       0                               0D    124
     126     108                                                00010000D    125
     126       0               8       0                               0D    126
     126     116                                                00010000D    127
     126       0               2       0                               0D    128
     126     118                                                00010000D    129
     126       0               8       0                               0D    130
     126     126                                                00010000D    131
     126       0               2       0                               0D    132
     126     128                                                00010000D    133
     126       0               2       0                               0D    134
     126     130                                                00010000D    135
     126       0               2       0                               0D    136
     126     132                                                00010000D    137
     126       0               2       0                               0D    138
     126     134                                                00010000D    139
     126       0               2       0                               0D    140
     126     136                                                00010000D    141
     126       0               2       0                               0D    142
     126     138                                                00010000D    143
     126       0               2       0                               0D    144
     126     140                                                00010000D    145
     126       0               2       0                               0D    146
     126     142                                                00010000D    147
     126       0               2       0                               0D    148
     126     144                                                00010000D    149
     126       0               2       0                               0D    150
     126     146                                                00010000D    151
     126       0               2       0                               0D    152
     126     148                                                00010000D    153
     126       0               2       0                               0D    154
     126     150                                                00010000D    155
     126       0               2       0                               0D    156
     126     152                                                00010000D    157
     126       0               2       0                               0D    158
     126     154                                                00010000D    159
     126       0               2       0                               0D    160
     128     156                                                00010000D    161
     128       0    -199       5       0                               0D    162
     128     161                                                00010000D    163
     128       0    -199       5       0                               0D    164
     128     166                                                00010000D    165
     128       0    -199       4       0                               0D    166
     128     170                                                00010000D    167
     128       0    -199       3       0                               0D    168
     128     173                                                00010000D    169
     128       0    -199       4       0                               0D    170
     128     177                                                00010000D    171
     128       0    -199       4       0                               0D    172
     128     181                                                00010000D    173
     128       0    -199      11       0                               0D    174
     128     192                                                00010000D    175
     128       0    -199      12       0                               0D    176
     128     204                                                00010000D    177
     128       0    -199       4       0                               0D    178
     128     208                                                00010000D    179
     128       0    -199       3       0                               0D    180
     128     211                                                00010000D    181
     128       0    -199       4       0                               0D    182
     128     215                                                00010000D    183
     128       0    -199       5       0                               0D    184
     128     220                                                00010000D    185
     128       0    -199       4       0                               0D    186
     128     224                                                00010000D    187
     128       0    -199       3       0                               0D    188
     128     227                                                00010000D    189
     128       0    -199       4       0                               0D    190
     128     231                                                00010000D    191
     128       0    -199       3       0                               0D    192
     502     234                                                00010000D    193
     502                       7       1                               0D    194
     504     241                                                00010001D    195
     504                      12       1                               0D    196
     406     253                                                00000000D    197
     406                       1      15                               0D    198
     314     254                                                00000200D    199
     314                       2       0                               0D    200
     314     256                                                00000200D    201
     314                       2       0                               0D    202
186,3,1,0,0,1,197;                                                     1P      1
514,16,5,1,7,1,9,1,11,1,13,1,15,1,17,1,19,1,21,1,23,1,25,1,27,1,       3P      2
29,1,31,1,33,1,35,1;                                                   3P      3
510,161,1,1,37;                                                        5P      4
510,163,1,1,39;                                                        7P      5
510,165,1,1,41;                                                        9P      6
510,167,1,1,43;                                                       11P      7
510,169,1,1,45;                                                       13P      8
510,171,3,1,47,49,51;                                                 15P      9
510,173,1,1,53;                                                       17P     10
510,175,1,1,55;                                                       19P     11
510,177,1,1,57;                                                       21P     12
510,179,1,1,59;                                                       23P     13
510,181,1,1,61;                                                       25P     14
510,183,3,1,63,65,67;                                                 27P     15
510,185,1,1,69;                                                       29P     16
510,187,1,1,71;                                                       31P     17
510,189,1,1,73;                                                       33P     18
510,191,1,1,75;                                                       35P     19
508,4,0,195,1,0,0,0,195,2,1,0,0,195,3,0,0,0,195,4,0,0;                37P     20
508,4,0,195,5,1,0,0,195,6,1,0,0,195,7,1,0,0,195,3,1,0;                39P     21
508,4,0,195,1,1,0,0,195,8,1,0,0,195,9,0,0,0,195,10,0,0;               41P     22
508,4,0,195,11,1,0,0,195,12,1,0,0,195,13,0,0,0,195,14,0,0;            43P     23
508,4,0,195,15,0,0,0,195,16,1,0,0,195,9,1,0,0,195,17,1,0;             45P     24
508,4,0,195,18,1,0,0,195,19,1,0,0,195,20,1,0,0,195,21,1,0;            47P     25
508,1,0,195,22,1,0;                                                   49P     26
508,1,0,195,23,1,0;                                                   51P     27
508,4,0,195,22,0,0,0,195,24,1,0,0,195,25,0,0,0,195,24,0,0;            53P     28
508,4,0,195,23,0,0,0,195,26,1,0,0,195,27,0,0,0,195,26,0,0;            55P     29
508,4,0,195,28,0,0,0,195,29,1,0,0,195,30,0,0,0,195,12,0,0;            57P     30
508,4,0,195,31,0,0,0,195,14,1,0,0,195,32,0,0,0,195,33,0,0;            59P     31
508,4,0,195,32,1,0,0,195,13,1,0,0,195,30,1,0,0,195,34,1,0;            61P     32
508,8,0,195,31,1,0,0,195,35,1,0,0,195,36,1,0,0,195,6,0,0,0,195,       63P     33
37,0,0,0,195,38,1,0,0,195,28,1,0,0,195,11,0,0;                        63P     34
508,1,0,195,25,1,0;                                                   65P     35
508,1,0,195,27,1,0;                                                   67P     36
508,8,0,195,36,0,0,0,195,39,1,0,0,195,19,0,0,0,195,40,0,0,0,195,      69P     37
17,0,0,0,195,8,0,0,0,195,4,1,0,0,195,7,0,0;                           69P     38
508,4,0,195,15,1,0,0,195,40,1,0,0,195,18,0,0,0,195,41,0,0;            71P     39
508,8,0,195,39,0,0,0,195,35,0,0,0,195,33,1,0,0,195,34,0,0,0,195,      73P     40
29,0,0,0,195,38,0,0,0,195,42,1,0,0,195,20,0,0;                        73P     41
508,8,0,195,42,0,0,0,195,37,1,0,0,195,5,0,0,0,195,2,0,0,0,195,        75P     42
10,1,0,0,195,16,0,0,0,195,41,1,0,0,195,21,0,0;                        75P     43
126,1,1,0,0,1,0,-4.00000005960464,-4.00000005960464,                  77P     44
4.00000005960464,4.00000005960464,1.,1.,0.,2.,29.5,                   77P     45
80.0000011920929,2.,29.5,-4.00000005960464,4.00000005960464,0.,       77P     46
0.,0.;                                                                77P     47
126,1,1,0,0,1,0,0.,0.,0.2,0.2,1.,1.,0.,2.,29.5,0.,2.,31.5,0.,         79P     48
0.2,0.,0.,0.;                                                         79P     49
126,1,1,0,0,1,0,0.,0.,8.00000011920929,8.00000011920929,1.,1.,        81P     50
80.0000011920929,2.,31.5,0.,2.,31.5,0.,8.00000011920929,0.,0.,        81P     51
0.;                                                                   81P     52
126,1,1,0,0,1,0,0.,0.,0.2,0.2,1.,1.,80.0000011920929,2.,29.5,         83P     53
80.0000011920929,2.,31.5,0.,0.2,0.,0.,0.;                             83P     54
126,1,1,0,0,1,0,0.,0.,0.2,0.2,1.,1.,0.,2.,31.5,0.,0.,31.5,0.,         85P     55
0.2,0.,0.,0.;                                                         85P     56
126,1,1,0,0,1,0,0.,0.,8.00000011920929,8.00000011920929,1.,1.,        87P     57
0.,0.,31.5,80.0000011920929,0.,31.5,0.,8.00000011920929,0.,0.,        87P     58
0.;                                                                   87P     59
126,1,1,0,0,1,0,0.,0.,0.2,0.2,1.,1.,80.0000011920929,0.,31.5,         89P     60
80.0000011920929,2.,31.5,0.,0.2,0.,0.,0.;                             89P     61
126,1,1,0,0,1,0,0.2,0.2,0.4,0.4,1.,1.,80.,2.,29.5,80.,4.,29.5,        91P     62
0.2,0.4,0.,0.,0.;                                                     91P     63
126,1,1,0,0,1,0,0.,0.,8.,8.,1.,1.,0.,4.,29.5,80.,4.,29.5,0.,8.,       93P     64
0.,0.,0.;                                                             93P     65
126,1,1,0,0,1,0,0.2,0.2,0.4,0.4,1.,1.,0.,2.,29.5,0.,4.,29.5,0.2,      95P     66
0.4,0.,0.,0.;                                                         95P     67
126,1,1,0,0,1,0,-7.55,-7.55,-0.45,-0.45,1.,1.,75.5,0.,29.5,4.5,       97P     68
0.,29.5,-7.55,-0.45,0.,0.,0.;                                         97P     69
126,1,1,0,0,1,0,0.,0.,0.3,0.3,1.,1.,4.5,0.,29.5,4.5,-3.,29.5,0.,      99P     70
0.3,0.,0.,0.;                                                         99P     71
126,1,1,0,0,1,0,0.,0.,7.1,7.1,1.,1.,75.5,-3.,29.5,4.5,-3.,29.5,      101P     72
0.,7.1,0.,0.,0.;                                                     101P     73
126,1,1,0,0,1,0,0.,0.,0.3,0.3,1.,1.,75.5,0.,29.5,75.5,-3.,29.5,      103P     74
0.,0.3,0.,0.,0.;                                                     103P     75
126,1,1,0,0,1,0,-2.,-2.,6.,6.,1.,1.,0.,4.,26.5,80.,4.,26.5,-2.,      105P     76
6.,0.,0.,0.;                                                         105P     77
126,1,1,0,0,1,0,2.65,2.65,2.95,2.95,1.,1.,0.,4.,26.5,0.,4.,29.5,     107P     78
2.65,2.95,0.,0.,0.;                                                  107P     79
126,1,1,0,0,1,0,-2.95,-2.95,-2.65,-2.65,1.,1.,80.,4.,29.5,80.,       109P     80
4.,26.5,-2.95,-2.65,0.,0.,0.;                                        109P     81
126,1,1,0,0,1,0,-2.,-2.,6.,6.,1.,1.,0.,6.,26.5,80.,6.,26.5,-2.,      111P     82
6.,0.,0.,0.;                                                         111P     83
126,1,1,0,0,1,0,-0.5125,-0.5125,2.1375,2.1375,1.,1.,80.,6.,26.5,     113P     84
80.,6.,0.,-0.5125,2.1375,0.,0.,0.;                                   113P     85
126,1,1,0,0,1,0,-2.,-2.,6.,6.,1.,1.,80.,6.,0.,0.,6.,0.,-2.,6.,       115P     86
0.,0.,0.;                                                            115P     87
126,1,1,0,0,1,0,-0.6625,-0.6625,1.9875,1.9875,1.,1.,0.,6.,0.,0.,     117P     88
6.,26.5,-0.6625,1.9875,0.,0.,0.;                                     117P     89
126,8,2,0,1,0,0,-3.14159265358979,-3.14159265358979,                 119P     90
-3.14159265358979,-1.5707963267949,-1.5707963267949,0.,0.,           119P     91
1.5707963267949,1.5707963267949,3.14159265358979,                    119P     92
3.14159265358979,3.14159265358979,1.,0.707106781186547,1.,           119P     93
0.707106781186547,1.,0.707106781186547,1.,0.707106781186547,1.,      119P     94
3.75,6.,2.5,3.75,6.,3.75,2.5,6.,3.75,1.25,6.,3.75,1.25,6.,2.5,       119P     95
1.25,6.,1.25,2.5,6.,1.25,3.75,6.,1.25,3.75,6.,2.5,                   119P     96
-3.14159265358979,3.14159265358979,0.,0.,0.;                         119P     97
126,8,2,0,1,0,0,-3.14159265358979,-3.14159265358979,                 121P     98
-3.14159265358979,-1.5707963267949,-1.5707963267949,0.,0.,           121P     99
1.5707963267949,1.5707963267949,3.14159265358979,                    121P    100
3.14159265358979,3.14159265358979,1.,0.707106781186539,1.,           121P    101
0.707106781186539,1.,0.707106781186539,1.,0.707106781186539,1.,      121P    102
78.75,6.,24.,78.75,6.,25.25,77.5,6.,25.25,76.25,6.,25.25,76.25,      121P    103
6.,24.,76.25,6.,22.75,77.5,6.,22.75,78.75,6.,22.75,78.75,6.,24.,     121P    104
-3.14159265358979,3.14159265358979,0.,0.,0.;                         121P    105
126,1,1,0,0,1,0,-1.6,-1.6,3.2,3.2,1.,1.,3.75,6.,2.5,3.75,0.,2.5,     123P    106
-1.6,3.2,0.,0.,0.;                                                   123P    107
126,8,2,0,1,0,0,-3.14159265358979,-3.14159265358979,                 125P    108
-3.14159265358979,-1.5707963267949,-1.5707963267949,0.,0.,           125P    109
1.5707963267949,1.5707963267949,3.14159265358979,                    125P    110
3.14159265358979,3.14159265358979,1.,0.707106781186547,1.,           125P    111
0.707106781186547,1.,0.707106781186547,1.,0.707106781186547,1.,      125P    112
3.75,0.,2.5,3.75,0.,1.25,2.5,0.,1.25,1.25,0.,1.25,1.25,0.,2.5,       125P    113
1.25,0.,3.75,2.5,0.,3.75,3.75,0.,3.75,3.75,0.,2.5,                   125P    114
-3.14159265358979,3.14159265358979,0.,0.,0.;                         125P    115
126,1,1,0,0,1,0,-1.6,-1.6,3.2,3.2,1.,1.,78.75,6.,24.,78.75,0.,       127P    116
24.,-1.6,3.2,0.,0.,0.;                                               127P    117
126,8,2,0,1,0,0,-3.14159265358979,-3.14159265358979,                 129P    118
-3.14159265358979,-1.5707963267949,-1.5707963267949,0.,0.,           129P    119
1.5707963267949,1.5707963267949,3.14159265358979,                    129P    120
3.14159265358979,3.14159265358979,1.,0.707106781186539,1.,           129P    121
0.707106781186539,1.,0.707106781186539,1.,0.707106781186539,1.,      129P    122
78.75,0.,24.,78.75,0.,22.75,77.5,0.,22.75,76.25,0.,22.75,76.25,      129P    123
0.,24.,76.25,0.,25.25,77.5,0.,25.25,78.75,0.,25.25,78.75,0.,24.,     129P    124
-3.14159265358979,3.14159265358979,0.,0.,0.;                         129P    125
126,1,1,0,0,1,0,-2.2125,-2.2125,0.7375,0.7375,1.,1.,4.5,0.,0.,       131P    126
4.5,0.,29.5,-2.2125,0.7375,0.,0.,0.;                                 131P    127
126,1,1,0,0,1,0,0.,0.,0.3,0.3,1.,1.,4.5,0.,0.,4.5,-3.,0.,0.,0.3,     133P    128
0.,0.,0.;                                                            133P    129
126,1,1,0,0,1,0,0.,0.,2.95,2.95,1.,1.,4.5,-3.,29.5,4.5,-3.,0.,       135P    130
0.,2.95,0.,0.,0.;                                                    135P    131
126,1,1,0,0,1,0,-2.2125,-2.2125,0.7375,0.7375,1.,1.,75.5,0.,         137P    132
29.5,75.5,0.,0.,-2.2125,0.7375,0.,0.,0.;                             137P    133
126,1,1,0,0,1,0,0.,0.,2.95,2.95,1.,1.,75.5,-3.,0.,75.5,-3.,29.5,     139P    134
0.,2.95,0.,0.,0.;                                                    139P    135
126,1,1,0,0,1,0,0.,0.,0.3,0.3,1.,1.,75.5,0.,0.,75.5,-3.,0.,0.,       141P    136
0.3,0.,0.,0.;                                                        141P    137
126,1,1,0,0,1,0,0.,0.,7.1,7.1,1.,1.,4.5,-3.,0.,75.5,-3.,0.,0.,       143P    138
7.1,0.,0.,0.;                                                        143P    139
126,1,1,0,0,1,0,7.55,7.55,8.,8.,1.,1.,75.5,0.,0.,80.,0.,0.,7.55,     145P    140
8.,0.,0.,0.;                                                         145P    141
126,1,1,0,0,1,0,-2.95,-2.95,0.2,0.2,1.,1.,80.0000011920929,0.,       147P    142
0.,80.0000011920929,0.,31.5,-2.95,0.2,0.,0.,0.;                      147P    143
126,1,1,0,0,1,0,0.,0.,3.15,3.15,1.,1.,0.,0.,0.,0.,0.,31.5,0.,        149P    144
3.15,0.,0.,0.;                                                       149P    145
126,1,1,0,0,1,0,0.,0.,0.45,0.45,1.,1.,0.,0.,0.,4.5,0.,0.,0.,         151P    146
0.45,0.,0.,0.;                                                       151P    147
126,1,1,0,0,1,0,0.,0.,0.6,0.6,1.,1.,80.,0.,0.,80.,6.,0.,0.,0.6,      153P    148
0.,0.,0.;                                                            153P    149
126,1,1,0,0,1,0,0.,0.,0.2,0.2,1.,1.,80.,4.,26.5,80.,6.,26.5,0.,      155P    150
0.2,0.,0.,0.;                                                        155P    151
126,1,1,0,0,1,0,0.,0.,0.2,0.2,1.,1.,0.,4.,26.5,0.,6.,26.5,0.,        157P    152
0.2,0.,0.,0.;                                                        157P    153
126,1,1,0,0,1,0,0.,0.,0.6,0.6,1.,1.,0.,0.,0.,0.,6.,0.,0.,0.6,0.,     159P    154
0.,0.;                                                               159P    155
128,1,1,1,1,0,0,1,0,0,-0.001,-0.001,8.00100011920929,                161P    156
8.00100011920929,-0.001,-0.001,0.201,0.201,1.,1.,1.,1.,              161P    157
80.0100011920929,2.,29.49,-0.00999999999999446,2.,29.49,             161P    158
80.0100011920929,2.,31.51,-0.00999999999999446,2.,31.51,-0.001,      161P    159
8.00100011920929,-0.001,0.201;                                       161P    160
128,1,1,1,1,0,0,1,0,0,-4.00100005960465,-4.00100005960465,           163P    161
4.00100005960465,4.00100005960465,-0.101,-0.101,0.101,0.101,1.,      163P    162
1.,1.,1.,-0.0100000000000033,-0.01,31.5,80.0100011920929,-0.01,      163P    163
31.5,-0.0100000000000033,2.01,31.5,80.0100011920929,2.01,31.5,       163P    164
-4.00100005960465,4.00100005960465,-0.101,0.101;                     163P    165
128,1,1,1,1,0,0,1,0,0,-0.001,-0.001,8.00100011920929,                165P    166
8.00100011920929,0.199,0.199,0.401,0.401,1.,1.,1.,1.,-0.01,1.99,     165P    167
29.5,80.0100011920929,1.99,29.5,-0.01,4.01,29.5,                     165P    168
80.0100011920929,4.01,29.5,-0.001,8.00100011920929,0.199,0.401;      165P    169
128,1,1,1,1,0,0,1,0,0,0.449,0.449,7.551,7.551,-0.301,-0.301,         167P    170
0.001,0.001,1.,1.,1.,1.,4.49,-3.01,29.5,75.51,-3.01,29.5,4.49,       167P    171
0.01,29.5,75.51,0.01,29.5,0.449,7.551,-0.301,0.001;                  167P    172
128,1,1,1,1,0,0,1,0,0,1.174,1.174,1.476,1.476,-4.001,-4.001,         169P    173
4.001,4.001,1.,1.,1.,1.,-0.0100000000000033,4.,26.49,                169P    174
-0.0100000000000033,4.,29.51,80.01,4.,26.49,80.01,4.,29.51,          169P    175
1.174,1.476,-4.001,4.001;                                            169P    176
128,1,1,1,1,0,0,1,0,0,-1.326,-1.326,1.326,1.326,-4.001,-4.001,       171P    177
4.001,4.001,1.,1.,1.,1.,-0.0100000000000033,6.,                      171P    178
-0.0099999999999989,-0.0100000000000033,6.,26.51,80.01,6.,           171P    179
-0.0099999999999989,80.01,6.,26.51,-1.326,1.326,-4.001,4.001;        171P    180
128,1,8,1,2,0,1,0,0,1,-1.6,-1.6,3.2,3.2,-3.14159265358979,           173P    181
-3.14159265358979,-3.14159265358979,-1.5707963267949,                173P    182
-1.5707963267949,0.,0.,1.5707963267949,1.5707963267949,              173P    183
3.14159265358979,3.14159265358979,3.14159265358979,1.,1.,            173P    184
0.707106781186548,0.707106781186548,1.,1.,0.707106781186548,         173P    185
0.707106781186548,1.,1.,0.707106781186548,0.707106781186548,1.,      173P    186
1.,0.707106781186548,0.707106781186548,1.,1.,3.75,6.,2.5,3.75,       173P    187
0.,2.5,3.75,6.,3.75,3.75,0.,3.75,2.5,6.,3.75,2.5,0.,3.75,1.25,       173P    188
6.,3.75,1.25,0.,3.75,1.25,6.,2.5,1.25,0.,2.5,1.25,6.,1.25,1.25,      173P    189
0.,1.25,2.5,6.,1.25,2.5,0.,1.25,3.75,6.,1.25,3.75,0.,1.25,3.75,      173P    190
6.,2.5,3.75,0.,2.5,-1.6,3.2,-3.14159265358979,3.14159265358979;      173P    191
128,1,8,1,2,0,1,0,0,1,-1.6,-1.6,3.2,3.2,-3.14159265358979,           175P    192
-3.14159265358979,-3.14159265358979,-1.5707963267949,                175P    193
-1.5707963267949,0.,0.,1.5707963267949,1.5707963267949,              175P    194
3.14159265358979,3.14159265358979,3.14159265358979,1.,1.,            175P    195
0.707106781186548,0.707106781186548,1.,1.,0.707106781186548,         175P    196
0.707106781186548,1.,1.,0.707106781186548,0.707106781186548,1.,      175P    197
1.,0.707106781186548,0.707106781186548,1.,1.,78.75,6.,24.,78.75,     175P    198
0.,24.,78.75,6.,25.25,78.75,0.,25.25,77.5,6.,25.25,77.5,0.,          175P    199
25.25,76.25,6.,25.25,76.25,0.,25.25,76.25,6.,24.,76.25,0.,24.,       175P    200
76.25,6.,22.75,76.25,0.,22.75,77.5,6.,22.75,77.5,0.,22.75,78.75,     175P    201
6.,22.75,78.75,0.,22.75,78.75,6.,24.,78.75,0.,24.,-1.6,3.2,          175P    202
-3.14159265358979,3.14159265358979;                                  175P    203
128,1,1,1,1,0,0,1,0,0,-0.001,-0.001,2.951,2.951,-0.001,-0.001,       177P    204
0.301,0.301,1.,1.,1.,1.,4.5,0.01,29.51,4.5,0.01,                     177P    205
-0.0099999999999989,4.5,-3.01,29.51,4.5,-3.01,                       177P    206
-0.0099999999999989,-0.001,2.951,-0.001,0.301;                       177P    207
128,1,1,1,1,0,0,1,0,0,-0.001,-0.001,2.951,2.951,-0.001,-0.001,       179P    208
0.301,0.301,1.,1.,1.,1.,75.5,0.01,-0.01,75.5,0.01,29.51,75.5,        179P    209
-3.01,-0.01,75.5,-3.01,29.51,-0.001,2.951,-0.001,0.301;              179P    210
128,1,1,1,1,0,0,1,0,0,-1.476,-1.476,1.476,1.476,-3.551,-3.551,       181P    211
3.551,3.551,1.,1.,1.,1.,4.49,-3.,29.51,4.49,-3.,                     181P    212
-0.0099999999999989,75.51,-3.,29.51,75.51,-3.,                       181P    213
-0.0099999999999989,-1.476,1.476,-3.551,3.551;                       181P    214
128,1,1,1,1,0,0,1,0,0,-4.001,-4.001,4.00100011920929,                183P    215
4.00100011920929,-1.676,-1.676,1.476,1.476,1.,1.,1.,1.,              183P    216
80.0100011920929,0.,31.51,-0.0100000000000033,0.,31.51,              183P    217
80.0100011920929,0.,-0.0099999999999989,-0.0100000000000033,0.,      183P    218
-0.0099999999999989,-4.001,4.00100011920929,-1.676,1.476;            183P    219
128,1,1,1,1,0,0,1,0,0,-0.201,-0.201,2.951,2.951,-0.001,-0.001,       185P    220
0.601,0.601,1.,1.,1.,1.,80.,-0.01,31.51,80.,-0.01,                   185P    221
-0.0099999999999989,80.,6.01,31.51,80.,6.01,-0.0099999999999989,     185P    222
-0.201,2.951,-0.001,0.601;                                           185P    223
128,1,1,1,1,0,0,1,0,0,-0.001,-0.001,8.001,8.001,0.199,0.199,         187P    224
0.401,0.401,1.,1.,1.,1.,-0.01,3.99,26.5,80.01,3.99,26.5,-0.01,       187P    225
6.01,26.5,80.01,6.01,26.5,-0.001,8.001,0.199,0.401;                  187P    226
128,1,1,1,1,0,0,1,0,0,-0.001,-0.001,8.001,8.001,-0.301,-0.301,       189P    227
0.601,0.601,1.,1.,1.,1.,80.01,-3.01,0.,-0.00999999999999446,         189P    228
-3.01,0.,80.01,6.01,0.,-0.00999999999999446,6.01,0.,-0.001,          189P    229
8.001,-0.301,0.601;                                                  189P    230
128,1,1,1,1,0,0,1,0,0,-0.001,-0.001,3.151,3.151,-0.001,-0.001,       191P    231
0.601,0.601,1.,1.,1.,1.,0.,-0.01,-0.01,0.,-0.01,31.51,0.,6.01,       191P    232
-0.01,0.,6.01,31.51,-0.001,3.151,-0.001,0.601;                       191P    233
502,28,0.,2.,29.5,80.0000011920929,2.,29.5,0.,2.,31.5,               193P    234
80.0000011920929,2.,31.5,0.,0.,31.5,80.0000011920929,0.,31.5,        193P    235
80.,4.,29.5,0.,4.,29.5,75.5,0.,29.5,4.5,0.,29.5,4.5,-3.,29.5,        193P    236
75.5,-3.,29.5,0.,4.,26.5,80.,4.,26.5,0.,6.,26.5,80.,6.,26.5,80.,     193P    237
6.,0.,0.,6.,0.,3.75,6.,2.5,78.75,6.,24.,3.75,0.,2.5,78.75,0.,        193P    238
24.,4.5,0.,0.,4.5,-3.,0.,75.5,0.,0.,75.5,-3.,0.,80.,0.,0.,0.,0.,     193P    239
0.;                                                                  193P    240
504,42,77,193,1,193,2,79,193,1,193,3,81,193,4,193,3,83,193,2,        195P    241
193,4,85,193,3,193,5,87,193,5,193,6,89,193,6,193,4,91,193,2,193,     195P    242
7,93,193,8,193,7,95,193,1,193,8,97,193,9,193,10,99,193,10,193,       195P    243
11,101,193,12,193,11,103,193,9,193,12,105,193,13,193,14,107,193,     195P    244
13,193,8,109,193,7,193,14,111,193,15,193,16,113,193,16,193,17,       195P    245
115,193,17,193,18,117,193,18,193,15,119,193,19,193,19,121,193,       195P    246
20,193,20,123,193,19,193,21,125,193,21,193,21,127,193,20,193,22,     195P    247
129,193,22,193,22,131,193,23,193,10,133,193,23,193,24,135,193,       195P    248
11,193,24,137,193,9,193,25,139,193,26,193,12,141,193,25,193,26,      195P    249
143,193,24,193,26,145,193,25,193,27,147,193,27,193,6,149,193,28,     195P    250
193,5,151,193,28,193,23,153,193,27,193,17,155,193,14,193,16,157,     195P    251
193,13,193,15,159,193,28,193,18;                                     195P    252
406,1,5HBody3;                                                       197P    253
314,96.4705882352941,96.4705882352941,95.2941176470588,11HABS (W     199P    254
hite);                                                               199P    255
314,62.7450980392157,62.7450980392157,62.7450980392157,13HSteel      201P    256
- Satin;                                                             201P    257
S      1G      3D    202P    257                                        T      1
