                                                                        S      1
,,19Htemperature sens v1,19Htemperature sens v1,7Hunknown,7Hunknown,32, G      1
38,7,99,15,,1.,2,2HMM,1,0.08,15H20190923.170830,0.01,10000.,7Hunknown,7HG      2
unknown,11,0,15H20190923.113214;                                        G      3
     186       1                                                00000000D      1
     186             -69       1       0                               0D      2
     514       2                                                00010000D      3
     514                       1       1                               0D      4
     510       3                                                00010000D      5
     510             -71       1       1                               0D      6
     510       4                                                00010000D      7
     510             -71       1       1                               0D      8
     510       5                                                00010000D      9
     510             -71       1       1                               0D     10
     510       6                                                00010000D     11
     510             -73       1       1                               0D     12
     510       7                                                00010000D     13
     510             -69       1       1                               0D     14
     510       8                                                00010000D     15
     510             -69       1       1                               0D     16
     508       9                                                00010000D     17
     508                       1       1                               0D     18
     508      10                                                00010000D     19
     508                       1       1                               0D     20
     508      11                                                00010000D     21
     508                       1       1                               0D     22
     508      12                                                00010000D     23
     508                       1       1                               0D     24
     508      13                                                00010000D     25
     508                       1       1                               0D     26
     508      14                                                00010000D     27
     508                       1       1                               0D     28
     508      15                                                00010000D     29
     508                       2       1                               0D     30
     126      17                                                00010000D     31
     126       0               8       0                               0D     32
     126      25                                                00010000D     33
     126       0               2       0                               0D     34
     126      27                                                00010000D     35
     126       0               9       0                               0D     36
     126      36                                                00010000D     37
     126       0               8       0                               0D     38
     126      44                                                00010000D     39
     126       0               3       0                               0D     40
     126      47                                                00010000D     41
     126       0               7       0                               0D     42
     126      54                                                00010000D     43
     126       0               5       0                               0D     44
     126      59                                                00010000D     45
     126       0               5       0                               0D     46
     126      64                                                00010000D     47
     126       0               7       0                               0D     48
     126      71                                                00010000D     49
     126       0               3       0                               0D     50
     128      74                                                00010000D     51
     128       0     -71      12       0                               0D     52
     128      86                                                00010000D     53
     128       0     -71       3       0                               0D     54
     128      89                                                00010000D     55
     128       0     -71       3       0                               0D     56
     128      92                                                00010000D     57
     128       0     -73      13       0                               0D     58
     128     105                                                00010000D     59
     128       0     -69       3       0                               0D     60
     128     108                                                00010000D     61
     128       0     -69      16       0                               0D     62
     502     124                                                00010000D     63
     502                       2       1                               0D     64
     504     126                                                00010001D     65
     504                       3       1                               0D     66
     406     129                                                00000000D     67
     406                       1      15                               0D     68
     314     130                                                00000200D     69
     314                       2       0                               0D     70
     314     132                                                00000200D     71
     314                       2       0                               0D     72
     314     134                                                00000200D     73
     314                       2       0                               0D     74
186,3,1,0,0,1,67;                                                      1P      1
514,6,5,1,7,1,9,1,11,1,13,1,15,1;                                      3P      2
510,51,1,1,17;                                                         5P      3
510,53,2,1,19,21;                                                      7P      4
510,55,1,1,23;                                                         9P      5
510,57,1,1,25;                                                        11P      6
510,59,1,1,27;                                                        13P      7
510,61,1,1,29;                                                        15P      8
508,4,0,65,1,1,0,0,65,2,1,0,0,65,3,0,0,0,65,2,0,0;                    17P      9
508,1,0,65,3,1,0;                                                     19P     10
508,1,0,65,4,0,0;                                                     21P     11
508,1,0,65,1,0,0;                                                     23P     12
508,5,0,65,4,1,0,0,65,5,1,0,0,65,6,1,0,0,65,7,1,0,0,65,5,0,0;         25P     13
508,2,0,65,8,1,0,0,65,9,1,0;                                          27P     14
508,6,0,65,8,0,0,0,65,9,0,0,0,65,10,1,0,0,65,6,0,0,0,65,7,0,0,0,      29P     15
65,10,0,0;                                                            29P     16
126,8,2,0,1,0,0,0.,0.,0.,1.5707963267949,1.5707963267949,             31P     17
3.14159265358979,3.14159265358979,4.71238898038469,                   31P     18
4.71238898038469,6.28318530717959,6.28318530717959,                   31P     19
6.28318530717959,1.,0.707106781186548,1.,0.707106781186548,1.,        31P     20
0.707106781186548,1.,0.707106781186548,1.,0.,0.,3.5,3.5,0.,3.5,       31P     21
3.5,0.,2.14313189850787D-16,3.5,0.,-3.5,4.28626379701574D-16,0.,      31P     22
-3.5,-3.5,0.,-3.5,-3.5,0.,-6.4293956955236D-16,-3.5,0.,3.5,           31P     23
-8.57252759403147D-16,0.,3.5,0.,6.28318530717959,0.,0.,0.;            31P     24
126,1,1,0,0,1,0,-5.71428571428571,-5.71428571428571,0.,0.,1.,1.,      33P     25
0.,0.,3.5,0.,20.,3.5,-5.71428571428571,0.,0.,0.,0.;                   33P     26
126,8,2,0,1,0,0,0.,0.,0.,1.5707963267949,1.5707963267949,             35P     27
3.14159265358979,3.14159265358979,4.71238898038469,                   35P     28
4.71238898038469,6.28318530717959,6.28318530717959,                   35P     29
6.28318530717959,1.,0.707106781186548,1.,0.707106781186548,1.,        35P     30
0.707106781186548,1.,0.707106781186548,1.,0.,20.,3.5,3.5,20.,         35P     31
3.5,3.5,20.,2.14313189850787D-16,3.5,20.,-3.5,                        35P     32
4.28626379701574D-16,20.,-3.5,-3.5,20.,-3.5,-3.5,20.,                 35P     33
-6.4293956955236D-16,-3.5,20.,3.5,-8.57252759403147D-16,20.,3.5,      35P     34
0.,6.28318530717959,0.,0.,0.;                                         35P     35
126,8,2,0,1,0,0,0.,0.,0.,1.5707963267949,1.5707963267949,             37P     36
3.14159265358979,3.14159265358979,4.71238898038469,                   37P     37
4.71238898038469,6.28318530717959,6.28318530717959,                   37P     38
6.28318530717959,1.,0.707106781186548,1.,0.707106781186548,1.,        37P     39
0.707106781186548,1.,0.707106781186547,1.,0.,20.,3.,3.,20.,3.,        37P     40
3.,20.,1.83697019872103D-16,3.,20.,-3.,3.67394039744206D-16,20.,      37P     41
-3.,-3.,20.,-3.,-3.,20.,-5.51091059616309D-16,-3.,20.,3.,             37P     42
-7.34788079488412D-16,20.,3.,0.,6.28318530717959,0.,0.,0.;            37P     43
126,1,1,0,0,1,0,-8.66666666666666,-8.66666666666666,                  39P     44
-0.333333333333332,-0.333333333333332,1.,1.,0.,20.,3.,0.,45.,3.,      39P     45
-8.66666666666666,-0.333333333333332,0.,0.,0.;                        39P     46
126,4,2,0,0,0,0,-6.28318530717959,-6.28318530717959,                  41P     47
-6.28318530717959,-4.71238898038469,-4.71238898038469,                41P     48
-3.14159265358979,-3.14159265358979,-3.14159265358979,1.,             41P     49
0.707106781186547,1.,0.707106781186548,1.,-7.34788079488412D-16,      41P     50
45.,3.,-3.,45.,3.,-3.,45.,-5.51091059616309D-16,-3.,45.,-3.,          41P     51
3.67394039744206D-16,45.,-3.,-6.28318530717959,                       41P     52
-3.14159265358979,0.,0.,0.;                                           41P     53
126,4,2,0,0,0,0,-3.14159265358979,-3.14159265358979,                  43P     54
-3.14159265358979,-1.5707963267949,-1.5707963267949,0.,0.,0.,1.,      43P     55
0.707106781186548,1.,0.707106781186548,1.,3.67394039744206D-16,       43P     56
45.,-3.,3.,45.,-3.,3.,45.,1.83697019872103D-16,3.,45.,3.,0.,45.,      43P     57
3.,-3.14159265358979,0.,0.,0.,0.;                                     43P     58
126,4,2,0,0,0,0,0.,0.,0.,1.5707963267949,1.5707963267949,             45P     59
3.14159265358979,3.14159265358979,3.14159265358979,1.,                45P     60
0.707106781186548,1.,0.707106781186548,1.,0.,46.,2.,2.,46.,2.,        45P     61
2.,46.,1.22464679914735D-16,2.,46.,-2.,2.44929359829471D-16,46.,      45P     62
-2.,0.,3.14159265358979,0.,0.,0.;                                     45P     63
126,4,2,0,0,0,0,3.14159265358979,3.14159265358979,                    47P     64
3.14159265358979,4.71238898038469,4.71238898038469,                   47P     65
6.28318530717959,6.28318530717959,6.28318530717959,1.,                47P     66
0.707106781186548,1.,0.707106781186548,1.,2.44929359829471D-16,       47P     67
46.,-2.,-2.,46.,-2.,-2.,46.,-3.67394039744206D-16,-2.,46.,2.,         47P     68
-4.89858719658941D-16,46.,2.,3.14159265358979,6.28318530717959,       47P     69
0.,0.,0.;                                                             47P     70
126,2,2,0,0,0,0,-1.5707963267949,-1.5707963267949,                    49P     71
-1.5707963267949,0.,0.,0.,1.,0.707106781186551,1.,0.,46.,-2.,0.,      49P     72
46.,-3.,0.,45.,-3.,-1.5707963267949,0.,0.,0.,0.;                      49P     73
128,1,8,1,2,0,1,0,0,1,0.,0.,5.71428571428571,5.71428571428571,        51P     74
-3.14159265358979,-3.14159265358979,-3.14159265358979,                51P     75
-1.5707963267949,-1.5707963267949,0.,0.,1.5707963267949,              51P     76
1.5707963267949,3.14159265358979,3.14159265358979,                    51P     77
3.14159265358979,1.,1.,0.707106781186548,0.707106781186548,1.,        51P     78
1.,0.707106781186548,0.707106781186548,1.,1.,0.707106781186548,       51P     79
0.707106781186548,1.,1.,0.707106781186548,0.707106781186548,1.,       51P     80
1.,0.,0.,3.5,0.,20.,3.5,-3.5,0.,3.5,-3.5,20.,3.5,-3.5,0.,0.,          51P     81
-3.5,20.,0.,-3.5,0.,-3.5,-3.5,20.,-3.5,0.,0.,-3.5,0.,20.,-3.5,        51P     82
3.5,0.,-3.5,3.5,20.,-3.5,3.5,0.,0.,3.5,20.,0.,3.5,0.,3.5,3.5,         51P     83
20.,3.5,0.,0.,3.5,0.,20.,3.5,0.,5.71428571428571,                     51P     84
-3.14159265358979,3.14159265358979;                                   51P     85
128,1,1,1,1,0,0,1,0,0,-0.351,-0.351,0.351,0.351,-0.351,-0.351,        53P     86
0.351,0.351,1.,1.,1.,1.,-3.51,20.,-3.51,-3.51,20.,3.51,3.51,20.,      53P     87
-3.51,3.51,20.,3.51,-0.351,0.351,-0.351,0.351;                        53P     88
128,1,1,1,1,0,0,1,0,0,-0.351,-0.351,0.351,0.351,-0.351,-0.351,        55P     89
0.351,0.351,1.,1.,1.,1.,-3.51,0.,3.51,-3.51,0.,-3.51,3.51,0.,         55P     90
3.51,3.51,0.,-3.51,-0.351,0.351,-0.351,0.351;                         55P     91
128,1,8,1,2,0,1,0,0,1,0.333333333333332,0.333333333333332,            57P     92
8.66666666666666,8.66666666666666,-3.14159265358979,                  57P     93
-3.14159265358979,-3.14159265358979,-1.5707963267949,                 57P     94
-1.5707963267949,0.,0.,1.5707963267949,1.5707963267949,               57P     95
3.14159265358979,3.14159265358979,3.14159265358979,1.,1.,             57P     96
0.707106781186548,0.707106781186548,1.,1.,0.707106781186548,          57P     97
0.707106781186548,1.,1.,0.707106781186548,0.707106781186548,1.,       57P     98
1.,0.707106781186548,0.707106781186548,1.,1.,0.,20.,3.,0.,45.,        57P     99
3.,-3.,20.,3.,-3.,45.,3.,-3.,20.,0.,-3.,45.,0.,-3.,20.,-3.,-3.,       57P    100
45.,-3.,0.,20.,-3.,0.,45.,-3.,3.,20.,-3.,3.,45.,-3.,3.,20.,0.,        57P    101
3.,45.,0.,3.,20.,3.,3.,45.,3.,0.,20.,3.,0.,45.,3.,                    57P    102
0.333333333333332,8.66666666666666,-3.14159265358979,                 57P    103
3.14159265358979;                                                     57P    104
128,1,1,1,1,0,0,1,0,0,-0.201,-0.201,0.201,0.201,-0.201,-0.201,        59P    105
0.201,0.201,1.,1.,1.,1.,-2.01,46.,-2.01,-2.01,46.,2.01,2.01,46.,      59P    106
-2.01,2.01,46.,2.01,-0.201,0.201,-0.201,0.201;                        59P    107
128,2,8,2,2,0,1,0,0,1,0.,0.,0.,1.5707963267949,1.5707963267949,       61P    108
1.5707963267949,-3.14159265358979,-3.14159265358979,                  61P    109
-3.14159265358979,-1.5707963267949,-1.5707963267949,0.,0.,            61P    110
1.5707963267949,1.5707963267949,3.14159265358979,                     61P    111
3.14159265358979,3.14159265358979,1.,0.707106781186551,1.,            61P    112
0.707106781186548,0.500000000000002,0.707106781186548,1.,             61P    113
0.707106781186551,1.,0.707106781186548,0.500000000000002,             61P    114
0.707106781186548,1.,0.707106781186551,1.,0.707106781186548,          61P    115
0.500000000000002,0.707106781186548,1.,0.707106781186551,1.,          61P    116
0.707106781186548,0.500000000000002,0.707106781186548,1.,             61P    117
0.707106781186551,1.,0.,46.,-2.,0.,46.,-3.,0.,45.,-3.,-2.,46.,        61P    118
-2.,-3.,46.,-3.,-3.,45.,-3.,-2.,46.,0.,-3.,46.,0.,-3.,45.,0.,         61P    119
-2.,46.,2.,-3.,46.,3.,-3.,45.,3.,0.,46.,2.,0.,46.,3.,0.,45.,3.,       61P    120
2.,46.,2.,3.,46.,3.,3.,45.,3.,2.,46.,0.,3.,46.,0.,3.,45.,0.,2.,       61P    121
46.,-2.,3.,46.,-3.,3.,45.,-3.,0.,46.,-2.,0.,46.,-3.,0.,45.,-3.,       61P    122
0.,1.5707963267949,-3.14159265358979,3.14159265358979;                61P    123
502,7,0.,0.,3.5,0.,20.,3.5,0.,20.,3.,0.,45.,3.,0.,45.,-3.,0.,         63P    124
46.,2.,0.,46.,-2.;                                                    63P    125
504,10,31,63,1,63,1,33,63,1,63,2,35,63,2,63,2,37,63,3,63,3,39,        65P    126
63,3,63,4,41,63,4,63,5,43,63,5,63,4,45,63,6,63,7,47,63,7,63,6,        65P    127
49,63,7,63,5;                                                         65P    128
406,1,5HBody1;                                                        67P    129
314,62.7450980392157,62.7450980392157,62.7450980392157,13HSteel       69P    130
- Satin;                                                              69P    131
314,29.8039215686275,29.8039215686275,29.8039215686275,16HOpaque      71P    132
(76,76,76);                                                           71P    133
314,64.7058823529412,61.9607843137255,58.8235294117647,19HOpaque      73P    134
(165,158,150);                                                        73P    135
S      1G      3D     74P    135                                        T      1
